<mxfile host="app.diagrams.net" agent="Mozilla/5.0 (Windows NT 10.0; Win64; x64) AppleWebKit/537.36 (KHTML, like Gecko) Chrome/129.0.0.0 Safari/537.36" version="24.7.17">
  <diagram name="Pagina-1" id="9KatZHJFmWRtqqkyK38y">
    <mxGraphModel dx="1050" dy="522" grid="1" gridSize="10" guides="1" tooltips="1" connect="1" arrows="1" fold="1" page="1" pageScale="1" pageWidth="827" pageHeight="1169" math="0" shadow="0">
      <root>
        <mxCell id="0" />
        <mxCell id="1" parent="0" />
        <mxCell id="aIZLE2XyVoulfT3v1Djj-2" value="" style="rounded=0;whiteSpace=wrap;html=1;" vertex="1" parent="1">
          <mxGeometry x="180" y="100" width="440" height="480" as="geometry" />
        </mxCell>
        <mxCell id="aIZLE2XyVoulfT3v1Djj-3" value="Beheerder" style="shape=umlActor;verticalLabelPosition=bottom;verticalAlign=top;html=1;outlineConnect=0;" vertex="1" parent="1">
          <mxGeometry x="90" y="320" width="30" height="60" as="geometry" />
        </mxCell>
        <mxCell id="aIZLE2XyVoulfT3v1Djj-4" value="Bibliotheekbeheer systeem vanuit oogpunt beheerder" style="rounded=0;whiteSpace=wrap;html=1;" vertex="1" parent="1">
          <mxGeometry x="180" y="100" width="120" height="60" as="geometry" />
        </mxCell>
        <mxCell id="aIZLE2XyVoulfT3v1Djj-7" value="UC 22: Inzien beheerders-instellingen" style="ellipse;whiteSpace=wrap;html=1;" vertex="1" parent="1">
          <mxGeometry x="230" y="310" width="120" height="80" as="geometry" />
        </mxCell>
        <mxCell id="aIZLE2XyVoulfT3v1Djj-8" value="UC 19: Aanpassen hoogte boete" style="ellipse;whiteSpace=wrap;html=1;" vertex="1" parent="1">
          <mxGeometry x="414" y="200" width="120" height="80" as="geometry" />
        </mxCell>
        <mxCell id="aIZLE2XyVoulfT3v1Djj-9" value="" style="endArrow=classic;html=1;rounded=0;entryX=0.1;entryY=0.805;entryDx=0;entryDy=0;entryPerimeter=0;dashed=1;dashPattern=8 8;" edge="1" parent="1" source="aIZLE2XyVoulfT3v1Djj-7" target="aIZLE2XyVoulfT3v1Djj-8">
          <mxGeometry width="50" height="50" relative="1" as="geometry">
            <mxPoint x="390" y="300" as="sourcePoint" />
            <mxPoint x="440" y="250" as="targetPoint" />
          </mxGeometry>
        </mxCell>
        <mxCell id="aIZLE2XyVoulfT3v1Djj-10" value="UC 20: Aanpassen lengte leenduur&amp;nbsp;" style="ellipse;whiteSpace=wrap;html=1;" vertex="1" parent="1">
          <mxGeometry x="470" y="320" width="120" height="80" as="geometry" />
        </mxCell>
        <mxCell id="aIZLE2XyVoulfT3v1Djj-11" value="UC21: Aanpassen prijzen/rechten abonnementsvormen" style="ellipse;whiteSpace=wrap;html=1;" vertex="1" parent="1">
          <mxGeometry x="430" y="450" width="140" height="90" as="geometry" />
        </mxCell>
        <mxCell id="aIZLE2XyVoulfT3v1Djj-14" value="" style="endArrow=classic;html=1;rounded=0;exitX=1;exitY=1;exitDx=0;exitDy=0;entryX=0;entryY=0;entryDx=0;entryDy=0;dashed=1;dashPattern=8 8;" edge="1" parent="1" source="aIZLE2XyVoulfT3v1Djj-7" target="aIZLE2XyVoulfT3v1Djj-11">
          <mxGeometry width="50" height="50" relative="1" as="geometry">
            <mxPoint x="370" y="420" as="sourcePoint" />
            <mxPoint x="420" y="370" as="targetPoint" />
          </mxGeometry>
        </mxCell>
        <mxCell id="aIZLE2XyVoulfT3v1Djj-15" value="" style="endArrow=classic;html=1;rounded=0;entryX=0;entryY=0.5;entryDx=0;entryDy=0;exitX=0.98;exitY=0.6;exitDx=0;exitDy=0;exitPerimeter=0;dashed=1;dashPattern=8 8;" edge="1" parent="1" source="aIZLE2XyVoulfT3v1Djj-7" target="aIZLE2XyVoulfT3v1Djj-10">
          <mxGeometry width="50" height="50" relative="1" as="geometry">
            <mxPoint x="400" y="370" as="sourcePoint" />
            <mxPoint x="450" y="320" as="targetPoint" />
          </mxGeometry>
        </mxCell>
        <mxCell id="aIZLE2XyVoulfT3v1Djj-16" value="&amp;lt;&amp;lt;extends&amp;gt;&amp;gt;" style="text;html=1;align=center;verticalAlign=middle;whiteSpace=wrap;rounded=0;" vertex="1" parent="1">
          <mxGeometry x="340" y="250" width="60" height="30" as="geometry" />
        </mxCell>
        <mxCell id="aIZLE2XyVoulfT3v1Djj-17" value="&amp;lt;&amp;lt;extends&amp;gt;&amp;gt;" style="text;html=1;align=center;verticalAlign=middle;whiteSpace=wrap;rounded=0;" vertex="1" parent="1">
          <mxGeometry x="400" y="320" width="60" height="30" as="geometry" />
        </mxCell>
        <mxCell id="aIZLE2XyVoulfT3v1Djj-18" value="&amp;lt;&amp;lt;extends&amp;gt;&amp;gt;" style="text;html=1;align=center;verticalAlign=middle;whiteSpace=wrap;rounded=0;" vertex="1" parent="1">
          <mxGeometry x="330" y="420" width="60" height="30" as="geometry" />
        </mxCell>
      </root>
    </mxGraphModel>
  </diagram>
</mxfile>
